<svg width="80" height="80" viewBox="0 0 80 80" fill="none" xmlns="http://www.w3.org/2000/svg">
<g clip-path="url(#clip0_14_244)">
<path d="M80 40C80 17.9086 62.0914 0 40 0C17.9086 0 0 17.9086 0 40C0 62.0914 17.9086 80 40 80C62.0914 80 80 62.0914 80 40Z" fill="#415A77"/>
<mask id="mask0_14_244" style="mask-type:alpha" maskUnits="userSpaceOnUse" x="0" y="0" width="80" height="80">
<path d="M39.9999 79.4286C61.7757 79.4286 79.4284 61.7758 79.4284 40C79.4284 18.2242 61.7757 0.571442 39.9999 0.571442C18.2241 0.571442 0.571289 18.2242 0.571289 40C0.571289 61.7758 18.2241 79.4286 39.9999 79.4286Z" fill="#778DA9" stroke="black"/>
</mask>
<g mask="url(#mask0_14_244)">
<path d="M39.9997 110.857C57.0417 110.857 70.8569 97.2978 70.8569 80.5715C70.8569 63.8451 57.0417 50.2857 39.9997 50.2857C22.9578 50.2857 9.14258 63.8451 9.14258 80.5715C9.14258 97.2978 22.9578 110.857 39.9997 110.857Z" fill="#D9D9D9"/>
</g>
<path d="M39.9998 50.2857C49.4675 50.2857 57.1426 42.6106 57.1426 33.1429C57.1426 23.6751 49.4675 16 39.9998 16C30.5321 16 22.8569 23.6751 22.8569 33.1429C22.8569 42.6106 30.5321 50.2857 39.9998 50.2857Z" fill="#D9D9D9"/>
</g>
<defs>
<clipPath id="clip0_14_244">
<rect width="80" height="80" fill="white"/>
</clipPath>
</defs>
</svg>
